<?xml version="1.0" standalone="no"?>
<!DOCTYPE svg PUBLIC "-//W3C//DTD SVG 20010904//EN"
 "http://www.w3.org/TR/2001/REC-SVG-20010904/DTD/svg10.dtd">
<svg version="1.0" xmlns="http://www.w3.org/2000/svg"
 width="540.000000pt" height="540.000000pt" viewBox="0 0 540.000000 540.000000"
 preserveAspectRatio="xMidYMid meet">
<metadata>
Created by potrace 1.11, written by Peter Selinger 2001-2013
</metadata>
<g transform="translate(0.000000,540.000000) scale(0.100000,-0.100000)"
fill="#000000" stroke="none">
<path d="M2675 4660 c-404 -46 -744 -225 -846 -445 -15 -33 -30 -76 -34 -95
-6 -29 -2 -26 24 25 134 264 563 456 1021 455 183 -1 372 -39 493 -100 40 -19
189 -104 331 -187 259 -152 259 -152 289 -137 16 9 25 19 21 24 -27 26 -630
365 -694 390 -159 61 -418 91 -605 70z"/>
<path d="M358 3948 l-158 -364 0 -886 0 -886 159 -369 c88 -202 168 -373 178
-380 10 -6 427 -248 928 -537 l910 -526 324 0 324 0 927 535 928 536 161 371
161 371 0 885 0 885 -157 364 -158 365 -3 -179 -3 -178 -923 -532 -923 -533
-334 1 -334 0 -920 532 -920 532 -5 178 -5 178 -157 -363z m906 -910 c259
-149 498 -290 531 -314 75 -52 178 -159 234 -243 60 -88 127 -234 152 -327 27
-103 29 -249 5 -321 -52 -156 -178 -215 -320 -150 -32 15 -70 27 -85 27 -16 0
-192 96 -459 250 -238 137 -437 250 -443 250 -5 0 -9 -166 -9 -421 0 -333 -3
-420 -12 -416 -7 2 -44 23 -82 45 -63 36 -67 41 -42 44 l27 3 -1 929 c0 871 1
928 17 922 9 -4 229 -129 487 -278z m3357 -1572 c-7 -8 2 -10 32 -8 23 3 40 2
37 -1 -7 -8 -148 -87 -155 -87 -3 0 -5 189 -5 420 0 231 -4 420 -8 420 -4 0
-203 -113 -442 -250 -354 -204 -441 -250 -470 -249 -19 0 -62 -11 -95 -25
-159 -68 -280 10 -315 205 -31 169 48 427 190 618 122 164 164 194 725 517
l510 294 3 -921 c1 -562 -2 -926 -7 -933z"/>
<path d="M870 2738 l0 -343 430 -248 c237 -136 455 -260 486 -274 51 -23 64
-25 132 -19 145 13 192 68 192 221 0 83 -19 153 -65 245 -65 129 -195 260
-259 260 -23 0 -147 67 -465 250 -238 138 -437 250 -442 250 -5 0 -9 -144 -9
-342z"/>
<path d="M4240 2922 c-151 -87 -347 -200 -435 -251 -120 -69 -168 -91 -190
-89 -95 7 -273 -210 -319 -388 -18 -72 -20 -184 -3 -232 17 -45 60 -88 103
-102 22 -8 68 -11 113 -8 93 6 66 -7 604 303 l416 240 1 343 c0 188 -3 342 -7
342 -5 0 -132 -71 -283 -158z"/>
<path d="M1503 4142 c-45 -26 -83 -50 -83 -53 0 -4 13 -12 29 -19 26 -10 35
-9 74 14 24 14 51 26 61 26 9 0 53 -21 97 -46 82 -48 113 -51 107 -12 -3 21
-27 38 -153 108 l-50 28 -82 -46z"/>
<path d="M2030 3976 c0 -9 11 -38 24 -65 22 -43 43 -65 115 -123 36 -30 538
-318 552 -318 8 1 25 7 38 14 28 15 52 0 -394 256 -242 139 -261 152 -306 214
-18 25 -29 33 -29 22z"/>
</g>
</svg>
